<?xml version="1.0" standalone="no"?>
<!DOCTYPE svg PUBLIC "-//W3C//DTD SVG 20010904//EN"
 "http://www.w3.org/TR/2001/REC-SVG-20010904/DTD/svg10.dtd">
<svg version="1.0" xmlns="http://www.w3.org/2000/svg"
 width="750.000000pt" height="750.000000pt" viewBox="0 0 750.000000 750.000000"
 preserveAspectRatio="xMidYMid meet">
<metadata>
Created by potrace 1.11, written by Peter Selinger 2001-2013
</metadata>
<g transform="translate(0.000000,750.000000) scale(0.100000,-0.100000)"
fill="#000000" stroke="none">
<path d="M3220 7421 c-8 -5 -94 -9 -190 -8 -161 1 -178 0 -215 -20 -39 -21
-40 -22 -16 -31 32 -11 16 -20 -34 -18 -30 1 -39 5 -36 16 19 76 9 78 -59 10
-50 -49 -72 -62 -69 -37 6 48 -1 49 -52 3 -30 -27 -61 -46 -75 -46 -14 0 -46
-21 -81 -53 -96 -87 -252 -209 -262 -203 -11 7 -33 -18 -24 -27 3 -4 -1 -7
-10 -7 -10 0 -17 -5 -17 -12 0 -19 -123 -176 -148 -187 -12 -6 -46 -32 -74
-58 -42 -40 -49 -44 -43 -23 7 23 7 23 -23 -6 -21 -22 -33 -47 -42 -90 -6 -32
-18 -68 -25 -80 -7 -11 -21 -55 -32 -97 -10 -42 -20 -77 -23 -77 -3 0 -13 18
-22 40 -30 72 -41 51 -36 -65 6 -99 7 -106 39 -147 18 -24 37 -46 42 -49 4 -3
2 -19 -4 -35 -7 -16 -11 -34 -10 -41 1 -6 -9 -19 -21 -28 -22 -16 -22 -17 26
-10 51 7 55 -3 14 -33 -23 -17 -23 -32 -1 -32 12 0 2 -15 -32 -50 -51 -52 -58
-76 -11 -39 l27 21 -7 -28 c-4 -16 -11 -35 -17 -42 -5 -7 -7 -15 -3 -19 3 -3
-6 -21 -20 -40 -14 -18 -24 -39 -21 -46 2 -7 0 -24 -4 -39 -6 -24 -5 -28 12
-28 17 0 20 -6 18 -32 -4 -46 19 -80 44 -67 16 9 17 8 8 -10 -12 -22 -7 -58
14 -107 13 -27 34 -154 50 -294 3 -30 15 -98 25 -150 21 -105 30 -215 35 -395
2 -66 8 -142 13 -170 9 -47 9 -44 11 50 3 125 45 377 71 422 5 10 19 43 30 75
20 53 65 122 118 178 13 14 32 43 42 65 17 38 62 209 79 303 4 23 18 53 29 65
12 13 22 27 22 31 0 4 16 22 35 40 19 19 35 36 35 40 0 3 16 23 35 43 19 20
35 40 35 44 0 13 36 45 73 64 20 11 37 23 37 27 0 4 17 10 38 14 20 4 48 12
62 19 14 7 57 16 95 20 39 4 86 10 105 13 111 15 366 7 525 -17 133 -20 315
-40 422 -47 60 -3 116 -10 126 -16 9 -5 23 -6 29 -2 7 4 44 9 82 11 39 2 118
11 176 20 58 9 143 17 190 18 47 1 99 7 115 14 30 13 300 28 430 25 39 -1 88
-7 110 -14 22 -6 50 -14 63 -17 12 -3 22 -12 22 -19 0 -8 10 -14 25 -14 15 0
25 -6 25 -15 0 -8 14 -18 33 -23 27 -6 38 -19 67 -77 20 -38 41 -70 48 -73 7
-2 12 -9 12 -15 0 -6 7 -18 15 -27 9 -10 18 -34 20 -55 3 -21 14 -53 25 -70
11 -18 20 -40 20 -49 0 -9 7 -28 16 -41 9 -13 18 -53 21 -87 5 -59 36 -138 55
-138 4 0 8 -5 8 -10 0 -6 19 -36 42 -68 39 -52 98 -177 98 -207 0 -7 7 -18 15
-25 8 -7 15 -23 15 -36 0 -12 4 -25 9 -29 15 -9 29 25 35 90 7 60 47 267 92
470 13 61 24 118 24 128 0 9 7 17 15 17 12 0 8 13 -16 55 -33 58 -30 69 8 33
13 -12 23 -16 23 -10 0 6 -4 14 -10 17 -5 3 -10 12 -10 18 0 7 12 -1 25 -16
26 -29 33 -21 14 15 -10 18 -9 20 5 15 14 -6 13 -1 -5 25 l-22 31 20 16 c16
13 18 22 11 41 -7 20 -7 23 3 13 7 -7 17 -13 21 -13 11 0 -9 37 -38 73 -28 34
-30 47 -7 47 18 0 12 10 -9 14 -20 3 -125 60 -188 100 -57 37 -48 48 18 21
l37 -16 -43 36 c-23 20 -42 41 -42 46 0 12 47 12 70 -1 14 -7 23 -6 33 5 18
17 31 7 15 -12 -13 -16 -11 -18 25 -27 16 -4 27 -2 27 4 0 7 6 7 20 0 11 -6
20 -9 20 -6 0 5 -98 76 -106 76 -3 0 -17 9 -31 20 -14 11 -41 20 -59 20 -41 0
-45 22 -12 57 16 17 19 26 11 34 -8 8 -13 5 -18 -12 -7 -21 -9 -21 -20 -5 -12
15 -16 13 -49 -25 -20 -24 -36 -40 -36 -36 0 10 34 72 40 74 3 1 17 4 33 8 15
4 27 12 27 17 0 6 -7 7 -16 4 -15 -6 -15 -4 0 18 10 15 12 27 6 31 -6 3 -20
-10 -31 -30 -26 -43 -37 -40 -15 4 14 27 14 30 1 25 -15 -6 -21 7 -8 20 12 12
16 149 4 141 -6 -3 -11 -24 -11 -46 0 -21 -4 -39 -10 -39 -5 0 -18 -21 -30
-47 -11 -25 -23 -43 -26 -40 -4 3 -7 50 -8 104 -2 93 -23 239 -33 229 -3 -2 1
-38 7 -79 13 -79 11 -106 -13 -202 -15 -59 -63 -173 -52 -125 3 14 8 57 11 95
2 39 7 85 9 103 2 19 0 30 -6 27 -5 -4 -9 -19 -9 -35 0 -16 -4 -32 -10 -35 -5
-3 -10 -20 -10 -36 0 -17 -4 -28 -10 -24 -9 5 -39 -51 -55 -104 -4 -14 -15
-37 -25 -53 -16 -27 -17 -24 -12 102 4 116 3 130 -12 130 -11 0 -16 9 -17 33
0 24 -4 17 -14 -28 -29 -134 -48 -176 -82 -182 -14 -3 -27 32 -18 47 4 6 2 17
-4 24 -13 15 6 119 20 110 19 -12 -17 150 -37 167 -8 6 -14 17 -14 24 0 7 -7
18 -15 25 -9 7 -14 14 -12 16 1 2 -37 45 -86 96 -63 67 -87 99 -85 115 2 12
-8 33 -21 47 -14 14 -20 26 -15 26 16 0 39 -19 39 -32 0 -7 9 -11 20 -10 10 2
24 -3 29 -11 6 -7 26 -21 44 -31 17 -9 32 -21 32 -26 0 -6 11 -16 25 -22 14
-6 25 -16 25 -23 0 -6 14 -24 30 -40 l30 -29 0 25 c0 13 -9 44 -20 68 -25 55
-19 64 12 17 13 -20 26 -36 30 -36 7 0 -29 87 -44 107 -5 7 -7 21 -3 32 4 15
-10 36 -60 89 -36 38 -65 72 -65 75 0 3 12 -1 28 -9 15 -7 33 -14 40 -14 27 0
197 -148 249 -215 18 -24 33 -51 33 -59 0 -22 18 -20 22 2 4 18 -18 65 -56
117 -29 41 -51 84 -35 68 7 -7 20 -13 28 -13 22 0 -35 57 -89 88 -25 15 -59
36 -77 48 -17 12 -50 24 -73 28 -23 3 -76 24 -119 45 -156 79 -463 167 -651
187 -78 8 -73 0 30 -46 133 -58 116 -68 -32 -19 -122 40 -275 74 -423 93 -131
18 -579 22 -605 7z m761 -461 c29 -27 59 -50 66 -50 7 0 19 -12 27 -27 8 -16
15 -22 16 -14 0 22 38 -32 66 -96 14 -31 34 -70 45 -85 11 -15 18 -32 15 -36
-3 -4 -1 -26 5 -48 16 -69 23 -194 10 -194 -6 0 -12 -12 -12 -27 -2 -24 -2
-25 -6 -5 -6 32 -22 27 -30 -9 -4 -22 -8 -27 -14 -17 -7 10 -9 10 -9 1 0 -7
-4 -13 -10 -13 -5 0 -10 11 -10 25 0 30 -16 33 -23 4 -3 -12 -10 -18 -15 -15
-5 3 -13 -4 -17 -17 -5 -14 -10 13 -15 81 -4 57 -10 106 -14 109 -3 4 -6 -1
-6 -10 0 -37 -20 -23 -35 25 -22 68 -56 138 -67 138 -5 0 -4 -8 1 -18 5 -10
19 -57 30 -105 17 -67 20 -102 15 -154 l-7 -67 -18 39 c-9 22 -25 59 -35 83
-19 47 -32 50 -16 3 7 -19 7 -33 1 -36 -5 -4 -9 5 -9 19 0 14 -4 28 -10 31 -5
3 -10 18 -10 32 0 13 -6 37 -13 51 -32 63 -56 120 -67 157 -7 22 -28 59 -46
82 -19 23 -34 50 -34 60 0 10 -12 29 -25 42 -14 13 -25 27 -25 32 0 14 26 10
40 -6 10 -11 16 -12 26 -4 10 8 21 5 44 -13 71 -54 209 -204 223 -240 8 -24
27 -23 27 0 0 27 -38 139 -67 196 -24 47 -32 59 -61 92 -10 11 -11 18 -3 28 6
7 8 16 4 19 -3 4 -2 7 4 7 6 0 35 -22 64 -50z m304 -88 c32 -39 61 -69 64 -67
2 3 -2 11 -9 20 -7 8 -8 15 -3 15 5 0 15 -11 21 -25 12 -27 32 -34 32 -11 0
21 -40 67 -68 77 -16 6 -22 13 -15 17 6 4 12 15 14 25 3 15 11 12 45 -21 22
-22 46 -53 53 -70 7 -17 31 -49 53 -71 27 -26 46 -57 55 -88 l13 -48 -4 73
c-4 59 -10 80 -31 107 -17 23 -31 32 -43 29 -16 -5 -16 -5 1 9 21 17 21 27 2
63 -25 49 0 49 49 0 26 -25 54 -46 62 -46 9 0 32 -17 52 -39 20 -21 48 -42 62
-46 14 -4 28 -13 32 -19 4 -6 10 -8 13 -5 8 9 -15 58 -47 100 -15 20 -28 42
-28 47 0 22 17 20 43 -3 14 -14 32 -22 40 -19 24 9 179 -155 219 -233 20 -37
39 -79 43 -93 4 -14 16 -45 27 -70 14 -29 17 -45 9 -48 -6 -2 -11 -12 -11 -23
0 -34 -16 -20 -28 26 -7 25 -17 45 -22 45 -6 0 -8 -10 -4 -24 3 -13 1 -27 -5
-30 -6 -4 -13 5 -16 21 -10 43 -24 75 -33 69 -4 -2 -9 -27 -10 -55 -2 -59 -35
-151 -61 -175 -17 -16 -18 -15 -13 10 3 17 1 25 -5 21 -7 -4 -11 29 -12 94 -1
117 -23 233 -49 269 -18 24 -107 69 -116 59 -3 -3 2 -25 11 -49 8 -25 16 -76
17 -115 1 -90 -13 -207 -25 -200 -5 4 -9 15 -9 26 0 10 -4 19 -10 19 -5 0 -10
-9 -10 -20 0 -19 -14 -24 -57 -23 -7 0 -18 -25 -25 -56 l-13 -56 -3 118 c-1
67 -7 117 -12 117 -6 0 -10 -10 -10 -21 0 -26 -39 -161 -50 -172 -9 -10 -22
60 -24 130 -1 52 -15 86 -17 42 -1 -13 -1 -27 0 -31 0 -5 -6 -8 -14 -8 -8 0
-15 -5 -15 -11 0 -5 -5 -7 -11 -3 -7 4 -7 9 -2 13 11 7 10 47 0 57 -4 4 -11
-4 -16 -17 -8 -20 -10 -15 -11 31 -3 91 -8 131 -20 145 -6 7 -17 39 -26 71
-17 66 -29 85 -50 77 -8 -3 -14 0 -14 7 0 6 5 8 10 5 21 -13 9 20 -30 81 -22
35 -40 66 -40 70 0 16 50 -29 105 -94z m765 77 c0 -6 -4 -7 -10 -4 -5 3 -10
11 -10 16 0 6 5 7 10 4 6 -3 10 -11 10 -16z m-1500 -73 c9 9 19 5 41 -17 16
-15 29 -33 29 -39 0 -6 4 -9 9 -6 11 7 41 -37 41 -59 0 -9 5 -13 10 -10 6 3
13 -2 17 -12 4 -10 13 -22 20 -28 16 -12 98 -250 111 -322 10 -55 -1 -72 -18
-28 -5 14 -14 25 -20 25 -6 0 -14 10 -19 23 -19 48 -120 202 -136 205 -14 3
-13 -1 5 -35 24 -45 26 -60 5 -43 -19 16 -19 6 1 -47 9 -24 14 -46 10 -50 -8
-8 -4 -15 -77 122 -65 122 -102 205 -91 205 3 0 1 5 -6 12 -7 7 -12 19 -12 28
1 21 79 -66 86 -97 6 -22 48 -73 60 -73 7 0 -6 43 -15 50 -18 14 -62 113 -57
127 4 10 2 14 -8 10 -10 -4 -14 0 -14 11 1 9 -2 31 -6 47 -7 28 -6 29 8 10 11
-15 18 -17 26 -9z m900 -20 c0 -3 -4 -8 -10 -11 -5 -3 -10 -1 -10 4 0 6 5 11
10 11 6 0 10 -2 10 -4z m-1090 -105 c0 -6 9 -15 19 -21 11 -5 25 -26 32 -45 7
-19 17 -35 21 -35 4 0 8 -5 8 -11 0 -6 17 -56 39 -112 47 -123 61 -167 54
-167 -10 0 -44 47 -80 110 -20 36 -42 70 -48 77 -14 14 -77 145 -93 194 -7 19
-12 46 -12 58 0 22 1 21 30 -7 17 -17 30 -35 30 -41z m-30 -142 c55 -108 63
-140 25 -94 -13 17 -24 24 -25 18 0 -7 4 -13 9 -13 9 0 31 -53 31 -74 0 -12
-40 49 -90 139 -21 37 -29 60 -21 63 13 4 15 32 2 32 -5 0 -12 -6 -14 -12 -6
-14 -11 24 -8 55 1 9 -3 17 -8 17 -6 0 -11 8 -11 17 0 33 60 -47 110 -148z
m953 134 c24 -47 39 -126 29 -153 -8 -22 -10 -19 -17 28 -4 29 -13 75 -20 102
-15 56 -12 63 8 23z m-1184 -157 c5 -13 17 -26 25 -29 9 -4 16 -14 16 -23 0
-10 3 -15 6 -11 10 10 56 -43 58 -67 0 -13 6 -22 12 -19 6 2 14 -6 17 -18 7
-24 -3 -43 -10 -21 -3 6 -9 12 -15 12 -5 0 -15 6 -21 13 -7 7 -27 29 -45 48
-34 37 -80 139 -62 139 6 0 15 -11 19 -24z m-41 -92 c15 -16 36 -43 47 -58 11
-16 26 -34 33 -41 12 -13 17 -35 7 -35 -8 0 -75 76 -117 132 -40 53 -55 105
-17 58 11 -14 32 -39 47 -56z m1263 20 c-9 -28 -9 -29 -10 -3 -1 14 2 29 6 32
11 12 13 2 4 -29z m-711 -45 c0 -6 -4 -7 -10 -4 -5 3 -10 11 -10 16 0 6 5 7
10 4 6 -3 10 -11 10 -16z m-790 -54 c13 -14 20 -25 16 -25 -4 0 -18 11 -32 25
-14 14 -21 25 -16 25 5 0 19 -11 32 -25z m834 -21 c3 -8 2 -12 -4 -9 -6 3 -10
10 -10 16 0 14 7 11 14 -7z m278 -9 c3 -14 1 -25 -3 -25 -5 0 -9 11 -9 25 0
14 2 25 4 25 2 0 6 -11 8 -25z m-1039 -40 c10 -14 14 -25 9 -25 -12 0 -52 39
-52 50 0 15 24 1 43 -25z m-253 -22 c0 -8 -38 17 -51 33 -9 11 -2 9 19 -6 17
-13 32 -25 32 -27z m40 27 c13 -11 19 -20 13 -20 -5 0 -18 9 -28 20 -10 11
-16 20 -13 20 3 0 15 -9 28 -20z m508 -9 c3 -8 -1 -12 -9 -9 -7 2 -15 10 -17
17 -3 8 1 12 9 9 7 -2 15 -10 17 -17z m-513 -31 c3 -5 1 -10 -4 -10 -6 0 -11
5 -11 10 0 6 2 10 4 10 3 0 8 -4 11 -10z m2955 -144 c0 -2 -9 -6 -20 -9 -11
-3 -20 -1 -20 4 0 5 9 9 20 9 11 0 20 -2 20 -4z m46 -20 c21 -16 16 -30 -9
-20 -16 6 -32 34 -19 34 5 0 17 -6 28 -14z m-96 -6 c0 -5 -4 -10 -10 -10 -5 0
-10 5 -10 10 0 6 5 10 10 10 6 0 10 -4 10 -10z m65 -210 c3 -5 1 -10 -4 -10
-6 0 -11 5 -11 10 0 6 2 10 4 10 3 0 8 -4 11 -10z m133 -158 c20 -31 1 -27
-22 5 -12 16 -14 24 -6 21 7 -2 20 -14 28 -26z"/>
<path d="M3750 6905 c0 -10 63 -75 73 -75 5 0 1 7 -7 16 -9 8 -16 18 -16 22
-1 9 -50 45 -50 37z"/>
<path d="M5532 6585 c0 -16 2 -22 5 -12 2 9 2 23 0 30 -3 6 -5 -1 -5 -18z"/>
<path d="M5599 6383 c-13 -16 -12 -17 4 -4 9 7 17 15 17 17 0 8 -8 3 -21 -13z"/>
<path d="M5680 6059 c13 -19 24 -35 25 -37 1 -1 10 0 19 4 33 13 16 32 -53 62
-10 3 -6 -7 9 -29z"/>
<path d="M2568 5149 c-32 -3 -70 -11 -85 -17 -15 -6 -48 -16 -73 -22 -48 -13
-87 -39 -162 -109 -27 -24 -48 -42 -48 -40 0 2 4 19 9 37 5 17 7 32 3 32 -13
0 -30 -36 -37 -80 -4 -25 -14 -57 -21 -72 -8 -15 -14 -37 -14 -48 l0 -21 29
20 c16 12 33 21 39 21 5 0 27 21 47 46 21 26 54 53 74 61 20 8 56 24 81 36 49
22 129 39 284 62 55 8 103 19 106 25 4 7 16 7 38 -1 17 -6 39 -9 49 -7 14 3
10 8 -17 22 -19 9 -51 25 -70 35 -40 21 -145 30 -232 20z m69 -45 c-3 -3 -12
-4 -19 -1 -8 3 -5 6 6 6 11 1 17 -2 13 -5z"/>
<path d="M4718 5135 c-61 -20 -77 -41 -22 -31 66 13 199 17 225 8 20 -8 13
-11 -44 -17 -38 -4 -88 -5 -112 -2 -24 4 -47 3 -50 -2 -3 -5 4 -7 15 -4 11 3
20 0 20 -6 0 -6 11 -11 25 -11 14 0 25 -5 25 -11 0 -8 15 -10 49 -5 39 5 50 3
55 -9 4 -10 19 -15 49 -15 30 0 62 -10 100 -30 31 -16 64 -30 73 -30 8 0 41
-25 73 -55 32 -30 62 -55 66 -55 5 0 20 -10 33 -22 l25 -23 -7 30 c-4 17 -11
54 -17 84 -12 65 -33 107 -23 46 l7 -40 -74 72 c-70 69 -77 74 -173 104 -121
39 -243 48 -318 24z"/>
<path d="M2838 5133 c7 -3 16 -2 19 1 4 3 -2 6 -13 5 -11 0 -14 -3 -6 -6z"/>
<path d="M5650 4536 c0 -57 4 -96 10 -96 6 0 10 15 11 33 0 17 1 59 2 91 1 40
-2 61 -10 63 -10 4 -13 -19 -13 -91z"/>
<path d="M2450 4524 c-85 -18 -181 -68 -237 -124 -56 -56 -118 -182 -132 -270
-35 -217 10 -413 119 -519 47 -45 176 -119 221 -127 26 -4 12 6 -54 43 -117
64 -160 101 -193 169 -25 50 -27 66 -28 172 -1 312 139 514 394 568 98 21 277
21 361 0 217 -56 353 -200 395 -422 8 -43 19 -92 23 -109 8 -28 9 -27 10 15 1
53 -30 170 -67 255 -37 82 -83 145 -140 191 -26 21 -49 41 -52 45 -14 18 -182
93 -248 110 -91 23 -273 25 -372 3z"/>
<path d="M4661 4524 c-72 -15 -187 -67 -256 -114 -84 -58 -152 -139 -189 -225
-10 -22 -22 -48 -26 -57 -28 -51 -70 -373 -57 -425 3 -10 5 0 6 23 2 64 30
264 46 327 32 125 109 238 211 307 109 76 318 113 489 86 164 -25 263 -79 333
-183 107 -158 145 -425 81 -563 -33 -70 -63 -99 -161 -156 -44 -25 -78 -48
-75 -50 8 -8 138 61 181 95 52 41 97 110 126 191 20 56 24 84 24 205 0 128 -2
147 -27 220 -65 184 -173 283 -350 319 -93 20 -268 20 -356 0z"/>
<path d="M2710 4394 c-82 -22 -135 -51 -196 -106 -231 -211 -178 -597 100
-737 68 -34 134 -52 122 -33 -4 7 -14 12 -22 12 -32 0 -174 82 -174 101 0 17
16 9 46 -21 16 -16 36 -30 44 -30 9 0 25 -6 35 -14 11 -8 56 -17 99 -20 212
-16 386 96 450 291 13 39 17 78 15 145 -2 51 -7 96 -12 99 -4 3 -4 14 -1 24 6
15 10 12 20 -19 7 -20 10 -44 7 -53 -4 -11 -3 -14 5 -9 20 12 13 -160 -9 -223
-24 -71 -18 -76 11 -10 27 64 36 175 21 251 -16 73 -61 165 -102 203 l-31 30
16 -40 c9 -21 21 -42 26 -45 10 -6 30 -55 30 -73 0 -6 -9 6 -21 28 -28 55 -57
78 -89 71 -40 -7 -94 28 -86 57 3 12 6 30 6 39 0 13 6 16 27 12 15 -3 31 -8
37 -11 6 -4 5 1 -3 11 -35 42 -170 86 -262 85 -30 0 -79 -7 -109 -15z m-250
-634 c0 -5 -5 -10 -11 -10 -5 0 -7 5 -4 10 3 6 8 10 11 10 2 0 4 -4 4 -10z
m54 -91 c-7 -12 -47 27 -50 47 -2 12 6 8 26 -11 16 -16 27 -32 24 -36z m21
-19 c-3 -5 -11 -10 -16 -10 -6 0 -7 5 -4 10 3 6 11 10 16 10 6 0 7 -4 4 -10z"/>
<path d="M4512 4386 c-85 -28 -134 -59 -196 -126 -86 -92 -120 -192 -114 -334
3 -83 8 -102 40 -167 39 -78 97 -145 162 -186 51 -33 144 -65 151 -52 4 5 -3
9 -14 9 -12 0 -21 5 -21 10 0 6 -11 10 -24 10 -14 0 -31 6 -38 13 -16 14 -47
35 -68 44 -8 4 -23 16 -32 27 -10 12 -22 27 -28 34 -6 6 -7 12 -3 12 4 0 -1 7
-11 15 -11 8 -15 15 -8 15 6 0 22 -15 34 -34 28 -42 129 -108 185 -120 158
-34 324 11 417 114 40 44 86 114 86 130 0 6 8 28 18 48 18 37 21 126 7 199 -3
18 -6 35 -6 38 0 9 -24 51 -54 92 -26 36 -35 41 -66 40 -49 -2 -93 27 -85 56
3 12 6 33 6 46 0 17 3 21 13 14 6 -6 26 -13 42 -17 29 -7 29 -6 -9 20 -103 71
-259 91 -384 50z m-218 -651 c-4 -8 -8 -15 -10 -15 -2 0 -4 7 -4 15 0 8 4 15
10 15 5 0 7 -7 4 -15z"/>
<path d="M4982 4237 c6 -20 14 -34 19 -32 7 5 23 -24 21 -37 -1 -5 2 -8 7 -8
8 0 17 -19 40 -92 6 -20 14 -73 17 -118 8 -133 -37 -239 -144 -338 -26 -24
-37 -39 -25 -33 32 16 120 119 143 169 12 24 28 76 37 115 14 60 14 85 5 150
-13 88 -57 189 -102 232 l-29 28 11 -36z"/>
<path d="M3320 3846 c0 -14 5 -28 10 -31 6 -3 10 5 10 19 0 14 -4 28 -10 31
-6 3 -10 -5 -10 -19z"/>
<path d="M1861 3748 c-8 -29 -16 -91 -18 -138 -5 -119 -7 -126 -40 -125 -37 0
-44 -38 -13 -63 15 -13 22 -30 23 -60 2 -35 5 -42 19 -38 13 3 20 -5 28 -32
15 -54 12 -149 -4 -175 -8 -12 -17 -58 -20 -102 -5 -64 -4 -73 5 -45 5 19 11
57 12 84 1 27 7 51 12 53 7 2 8 -20 4 -64 -3 -38 -1 -79 4 -93 5 -14 9 -38 8
-53 -1 -17 3 -26 9 -22 5 3 10 -1 10 -9 0 -9 -6 -13 -13 -10 -21 8 -43 -101
-25 -124 28 -36 39 -44 54 -38 9 3 14 1 13 -7 -6 -29 14 -76 41 -96 17 -12 30
-28 30 -36 0 -8 7 -15 15 -15 16 0 18 -6 15 -63 -2 -52 9 -97 24 -97 7 0 17
-14 22 -31 12 -40 88 -105 134 -114 l35 -7 -22 21 c-42 39 -20 57 26 22 14
-11 22 -25 18 -34 -7 -17 11 -37 27 -31 12 5 51 -64 42 -73 -3 -3 1 -12 9 -20
8 -8 15 -25 15 -38 0 -17 4 -23 14 -19 10 4 21 -6 32 -28 15 -30 18 -31 24
-13 7 18 9 18 15 3 4 -10 15 -20 26 -23 10 -4 19 -13 19 -20 0 -9 8 -12 22
-10 12 3 27 0 34 -6 7 -6 17 -8 22 -5 5 3 20 -2 33 -12 13 -10 32 -21 42 -25
11 -4 17 -17 17 -35 0 -31 55 -96 72 -86 4 3 8 -3 9 -13 0 -10 3 -13 6 -5 2 6
9 12 15 12 6 0 7 -7 4 -16 -3 -8 0 -22 8 -30 17 -16 30 -19 21 -4 -10 16 -15
80 -7 80 12 0 54 -101 48 -116 -3 -7 -2 -14 2 -16 4 -2 14 -14 22 -27 14 -21
90 -57 90 -42 0 3 -7 27 -15 54 -8 26 -11 47 -7 47 4 0 31 -46 60 -102 68
-132 82 -156 82 -140 0 6 12 12 28 12 19 0 32 -8 44 -27 9 -15 25 -27 36 -28
17 -1 19 2 12 27 -14 47 6 40 29 -12 21 -47 82 -101 89 -80 5 14 32 13 32 -1
0 -6 11 -8 29 -4 24 5 33 1 55 -27 26 -33 26 -33 16 -5 -19 52 -14 60 21 40
17 -10 33 -24 36 -30 3 -7 16 -13 29 -13 14 0 27 -6 30 -14 3 -8 12 -12 19
-10 7 3 23 1 34 -6 19 -10 29 -2 15 13 -4 3 -7 24 -8 45 l-2 39 24 -29 c13
-15 32 -28 43 -28 10 0 19 -5 19 -11 0 -7 10 -9 24 -7 15 3 27 0 30 -8 3 -7
13 -10 24 -8 12 4 22 -2 30 -18 11 -20 11 -21 7 -2 -3 13 2 31 14 45 l20 24
-5 -25 c-2 -14 -2 -19 2 -12 9 20 34 14 34 -9 0 -15 4 -19 16 -15 9 3 18 6 20
6 2 0 4 7 4 15 0 8 6 12 13 10 6 -3 25 7 41 22 22 20 28 22 23 9 -6 -14 -4
-17 9 -12 13 5 14 1 9 -27 l-6 -32 20 33 c12 18 26 30 31 27 6 -3 10 0 10 7 0
8 9 21 19 30 18 15 20 15 25 -5 6 -20 8 -18 22 15 9 21 20 35 25 32 5 -2 18 0
29 6 28 15 27 -6 -2 -37 -12 -13 -16 -23 -10 -23 7 0 12 4 12 9 0 5 9 13 20
16 15 5 19 12 16 28 -3 12 -3 17 0 10 3 -7 11 -10 19 -7 7 3 15 -3 18 -13 4
-14 5 -13 6 5 1 32 19 62 35 62 8 0 17 7 20 16 3 9 12 14 18 12 7 -3 17 4 23
15 14 29 39 35 30 8 -3 -11 -4 -21 0 -21 10 0 58 113 57 134 -1 10 6 32 14 47
7 15 14 43 14 60 0 30 1 31 13 15 15 -20 11 -70 -4 -60 -5 3 -9 -3 -9 -13 0
-11 -5 -24 -10 -29 -7 -7 -8 -19 0 -38 8 -23 13 -25 30 -16 11 6 23 23 26 38
15 64 43 136 44 112 0 -14 5 -32 11 -40 9 -13 10 -13 7 0 -3 8 1 38 8 67 7 29
10 63 8 75 -4 21 -3 20 6 -2 10 -23 8 -78 -7 -155 -5 -30 -5 -30 16 -11 11 11
21 14 21 8 0 -6 -8 -15 -17 -21 -10 -5 -14 -13 -10 -17 15 -16 34 30 31 77 -2
54 2 61 16 27 7 -19 9 -20 11 -5 1 9 2 22 3 27 3 25 21 2 21 -27 0 -45 16 -24
22 28 7 68 9 71 33 57 11 -7 20 -22 20 -33 0 -17 4 -15 30 13 17 18 30 39 29
45 0 9 -2 8 -6 -1 -6 -16 -23 -6 -23 15 0 9 6 13 15 9 9 -3 15 0 15 10 0 8 11
19 25 24 14 5 25 13 25 18 0 5 12 14 26 20 14 7 23 8 19 3 -3 -5 -1 -12 5 -16
5 -3 10 -1 10 6 0 7 10 9 25 7 27 -6 61 21 38 29 -13 5 -6 33 8 33 4 0 6 -7 3
-15 -9 -23 12 -18 30 7 9 13 15 19 15 13 -5 -43 3 -48 22 -12 18 35 39 49 39
27 0 -5 3 -10 8 -10 4 0 7 17 8 38 1 49 43 145 60 138 8 -3 11 0 8 8 -4 11 50
69 85 91 11 6 13 3 9 -13 -4 -12 -2 -22 3 -22 5 0 9 6 9 13 0 8 9 22 20 32 12
11 20 31 20 52 0 42 15 43 24 2 9 -45 8 -56 -6 -71 -24 -25 -40 -48 -35 -48
12 0 62 56 77 85 8 17 19 33 23 36 15 11 28 90 21 125 -4 22 -2 34 5 34 6 0
30 19 52 41 33 33 43 51 47 86 3 31 8 41 15 34 8 -8 19 -4 37 14 25 24 26 28
17 80 -7 34 -15 55 -24 55 -17 0 -17 19 1 72 8 24 13 76 13 116 -2 54 1 71 11
67 16 -6 15 1 -4 31 -13 18 -15 37 -11 76 4 28 11 54 17 58 6 4 9 17 8 31 -3
20 1 23 19 21 17 -2 21 1 17 12 -3 8 1 39 10 70 21 71 20 75 -9 86 -24 9 -25
13 -25 93 0 50 -6 102 -15 127 -8 23 -15 54 -16 69 l0 26 -10 -25 c-6 -14 -8
-40 -5 -58 3 -23 1 -35 -10 -39 -9 -3 -14 -21 -14 -57 -1 -50 -1 -50 -16 -26
-14 23 -15 18 -9 -70 6 -93 -1 -143 -20 -140 -5 1 -11 -3 -13 -9 -2 -6 1 -11
7 -11 6 0 11 -7 11 -15 0 -8 -6 -15 -13 -15 -18 0 -39 -72 -41 -138 -2 -55
-19 -80 -42 -61 -13 11 -17 4 -29 -59 -6 -31 -8 -32 -21 -15 -12 17 -13 16
-15 -12 -1 -29 -1 -29 -8 -5 -4 16 -9 21 -14 13 -4 -7 -14 -10 -22 -6 -10 3
-15 -1 -15 -12 0 -11 -5 -15 -14 -12 -23 9 -39 -20 -33 -58 6 -40 -11 -59 -21
-24 -6 19 -8 13 -12 -25 -5 -49 -5 -49 -42 -52 -32 -2 -38 1 -38 17 0 10 -4
19 -10 19 -5 0 -10 9 -10 20 0 11 -4 20 -10 20 -5 0 -10 -4 -10 -9 0 -5 -3
-16 -6 -25 -4 -11 -1 -16 10 -16 17 0 22 -42 10 -74 -9 -25 -43 -19 -56 9 -6
14 -14 25 -18 25 -9 0 -30 -46 -30 -65 0 -21 -37 -19 -49 3 -10 16 -10 15 -11
-3 -1 -49 -18 -49 -49 0 -26 42 -38 46 -32 12 3 -17 -53 -72 -73 -72 -17 -1
-21 -6 -19 -30 2 -23 0 -26 -7 -15 -14 22 -12 84 2 98 10 10 10 15 -2 22 -19
12 -20 10 -21 -36 -2 -86 -25 -102 -35 -23 -4 28 -12 53 -19 55 -7 3 -27 25
-45 50 -40 52 -52 56 -44 12 6 -33 6 -33 -27 13 -74 102 -104 138 -114 135 -5
-2 -23 6 -40 18 -16 11 -32 21 -35 21 -3 0 -18 9 -33 19 -18 12 -31 16 -35 9
-7 -10 -31 -10 -69 2 -15 5 -23 3 -23 -4 0 -7 -4 -9 -10 -6 -5 3 -10 1 -10 -5
0 -7 -13 -4 -32 8 -40 24 -102 28 -94 6 7 -17 2 -18 -32 0 -29 15 -115 19
-106 5 3 -5 1 -9 -5 -9 -5 0 -12 4 -15 9 -3 4 -37 8 -75 8 -52 0 -71 -3 -76
-14 -3 -10 -12 -13 -23 -8 -9 3 -44 9 -77 11 -69 6 -64 6 -132 -1 -28 -3 -54
-1 -57 4 -8 13 -59 1 -73 -17 -7 -9 -13 -11 -13 -5 0 6 12 21 28 32 22 16 23
20 9 21 -12 0 -15 4 -11 12 4 7 -10 2 -32 -11 -21 -13 -55 -26 -74 -28 -19 -3
-42 -12 -51 -20 -14 -11 -18 -12 -22 -1 -3 10 -9 9 -25 -5 -14 -13 -21 -15
-24 -6 -3 8 -17 3 -44 -14 -38 -25 -74 -35 -101 -26 -6 2 -42 -16 -79 -41 -47
-32 -68 -41 -72 -32 -7 22 -81 -63 -89 -100 -6 -32 -30 -88 -37 -88 -2 0 -2
10 1 21 4 16 2 20 -8 17 -8 -3 -21 -29 -30 -59 -14 -47 -20 -54 -43 -54 -21
-1 -26 4 -26 23 0 17 -4 22 -14 19 -13 -5 -62 24 -77 46 -4 5 -11 7 -17 3 -6
-3 -13 0 -15 6 -4 10 -6 10 -6 1 -2 -21 -19 -15 -27 9 -3 12 -13 28 -20 36
-12 11 -14 11 -14 -3 0 -9 -6 -23 -14 -30 -12 -12 -16 -11 -28 8 -8 12 -18 30
-21 41 -7 17 -9 18 -25 2 -25 -22 -52 -20 -53 4 -1 11 -2 26 -3 33 -1 6 5 11
13 9 10 -2 12 4 6 25 -9 39 -21 49 -40 33 -12 -10 -15 -10 -15 4 0 10 5 14 10
11 16 -10 12 11 -5 25 -8 7 -15 19 -15 26 0 8 -5 14 -11 14 -7 0 -8 -14 -4
-40 4 -26 3 -40 -4 -40 -6 0 -11 7 -11 15 0 8 -6 15 -14 15 -8 0 -17 14 -21
30 -4 17 -13 30 -21 30 -8 0 -14 7 -14 15 0 8 -4 15 -9 15 -5 0 -13 9 -16 21
-7 19 -7 20 -21 2 -13 -17 -13 -17 -14 6 0 14 -17 40 -45 67 -25 23 -46 47
-46 53 -3 26 -4 30 -11 37 -5 4 -8 17 -8 28 0 12 -7 34 -15 50 -8 15 -15 37
-15 48 0 10 -4 16 -10 13 -6 -4 -10 12 -10 42 0 68 -9 93 -32 93 -16 0 -18 5
-12 35 7 40 -23 125 -45 125 -10 0 -12 9 -7 38 3 24 1 45 -7 56 -11 14 -14 10
-26 -36z m86 -315 c-3 -10 -5 -4 -5 12 0 17 2 24 5 18 2 -7 2 -21 0 -30z
m-102 -43 c8 -38 -6 -65 -16 -30 -10 37 -10 60 0 60 5 0 12 -13 16 -30z m3820
-7 c-9 -37 -25 -53 -25 -26 0 29 10 53 22 53 6 0 7 -11 3 -27z m-210 -320
c-10 -40 -17 -20 -9 23 5 24 9 32 12 21 2 -10 1 -30 -3 -44z m-1299 -9 c18
-14 18 -14 -6 -3 -31 14 -36 19 -24 19 6 0 19 -7 30 -16z m-380 -217 c1 -1 4
-11 8 -23 6 -19 3 -20 -36 -15 -35 5 -44 10 -46 28 -3 20 0 22 34 17 21 -2 39
-5 40 -7z m48 -12 c3 -8 1 -15 -4 -15 -6 0 -10 7 -10 15 0 8 2 15 4 15 2 0 6
-7 10 -15z m141 5 c3 -5 1 -18 -4 -27 -6 -10 -11 -13 -11 -6 0 6 -3 18 -6 27
-7 17 11 22 21 6z m-435 -9 c0 -6 -4 -13 -10 -16 -5 -3 -10 1 -10 9 0 9 5 16
10 16 6 0 10 -4 10 -9z m-1634 -39 c-14 -14 -16 -14 -16 -1 0 20 23 44 29 28
2 -6 -4 -18 -13 -27z m2001 16 c-3 -8 -6 -5 -6 6 -1 11 2 17 5 13 3 -3 4 -12
1 -19z m271 7 c17 -9 34 -25 37 -35 4 -11 10 -20 14 -20 11 0 37 31 45 54 6
18 8 18 32 -5 27 -25 54 -70 54 -89 0 -5 -7 -10 -15 -10 -20 0 -19 -7 5 -37
28 -36 25 -51 -5 -23 -31 29 -32 18 -4 -22 l22 -30 -22 7 c-21 6 -30 -8 -11
-20 6 -4 8 -16 4 -27 -4 -14 -2 -18 5 -14 16 10 14 -7 -4 -30 -8 -10 -15 -27
-15 -37 0 -10 -4 -15 -10 -12 -5 3 -10 1 -10 -5 0 -7 -7 -10 -15 -6 -9 3 -15
0 -15 -10 0 -8 -12 -19 -27 -25 -16 -6 -36 -17 -45 -26 -10 -8 -24 -13 -32
-10 -9 4 -19 1 -23 -6 -5 -7 -14 -12 -20 -13 -7 -1 -20 -2 -29 -2 -10 -1 -14
-8 -10 -17 8 -22 -7 -18 -22 5 -13 22 -37 28 -29 7 2 -6 -1 -17 -8 -24 -10 -9
-15 -6 -24 13 -6 13 -15 24 -20 24 -16 0 -21 29 -7 42 20 21 8 85 -17 93 -12
4 -26 6 -32 5 -5 -1 -20 -2 -32 -2 -14 0 -23 -7 -23 -15 0 -13 -3 -13 -16 -2
-13 11 -17 10 -26 -5 -9 -16 -11 -16 -28 -1 -16 15 -18 14 -24 -2 -7 -17 -8
-17 -22 2 -12 16 -18 17 -33 8 -14 -9 -21 -9 -30 0 -9 9 -14 8 -22 -3 -8 -13
-11 -13 -23 3 -13 17 -46 15 -46 -3 0 -5 -8 -10 -17 -12 -13 -2 -22 -23 -34
-73 -15 -67 -17 -70 -44 -68 -16 1 -32 8 -36 14 -11 19 -38 19 -49 1 -8 -14
-10 -14 -9 -2 1 8 1 23 0 34 -1 16 -3 16 -17 5 -13 -10 -17 -10 -24 2 -24 38
-36 49 -53 49 -10 0 -15 5 -12 10 3 6 -3 10 -14 10 -25 0 -63 48 -56 71 7 22
-14 36 -26 18 -6 -9 -8 9 -6 51 2 44 -1 69 -10 78 -11 11 -13 10 -13 -4 0 -10
-3 -14 -7 -11 -3 4 -1 17 5 30 6 12 18 39 28 60 12 27 19 34 25 26 6 -10 12
-10 27 4 25 23 35 22 22 -2 -16 -32 -12 -41 18 -35 15 3 48 1 74 -4 35 -7 68
-5 120 5 61 13 83 13 139 3 44 -8 97 -10 160 -5 126 9 180 9 269 1 46 -5 85
-4 100 2 l25 11 -30 0 c-42 1 -55 16 -41 47 13 28 22 29 64 9z m1442 -21 c0
-8 -4 -14 -10 -14 -12 0 -31 35 -23 44 9 8 33 -14 33 -30z m-2237 14 c4 -10 8
-9 16 2 9 13 11 13 11 0 0 -17 -57 -56 -67 -46 -8 8 14 56 26 56 5 0 12 -6 14
-12z m87 2 c0 -5 -4 -10 -10 -10 -5 0 -10 5 -10 10 0 6 5 10 10 10 6 0 10 -4
10 -10z m620 -21 c0 -11 -4 -17 -10 -14 -5 3 -10 13 -10 21 0 8 5 14 10 14 6
0 10 -9 10 -21z m837 -46 c-3 -10 -5 -4 -5 12 0 17 2 24 5 18 2 -7 2 -21 0
-30z m-2337 12 c0 -8 -2 -15 -4 -15 -2 0 -6 7 -10 15 -3 8 -1 15 4 15 6 0 10
-7 10 -15z m3017 0 c8 -22 -6 -33 -17 -15 -13 20 -12 30 0 30 6 0 13 -7 17
-15z m-2797 -41 c0 -8 -4 -12 -10 -9 -5 3 -10 13 -10 21 0 8 5 12 10 9 6 -3
10 -13 10 -21z m775 -312 l-7 -27 -10 25 c-6 16 -6 26 1 28 6 2 12 11 12 20 1
14 2 14 6 -1 3 -10 2 -31 -2 -45z m42 -24 c-3 -8 -6 -5 -6 6 -1 11 2 17 5 13
3 -3 4 -12 1 -19z m-1482 -22 c0 -44 -12 -56 -21 -22 -4 16 -1 32 6 41 16 19
15 20 15 -19z m39 -48 c8 -32 7 -38 -4 -38 -13 0 -32 38 -25 50 10 17 22 11
29 -12z m2968 -120 c-7 -7 -12 -2 -17 12 -5 15 -2 25 6 31 17 10 26 -28 11
-43z m-2779 36 c8 -8 -3 -34 -14 -34 -5 0 -9 9 -9 20 0 19 11 26 23 14z m2734
-96 c-3 -7 -5 -2 -5 12 0 14 2 19 5 13 2 -7 2 -19 0 -25z m-2610 -110 c-3 -8
-6 -5 -6 6 -1 11 2 17 5 13 3 -3 4 -12 1 -19z m2310 -25 c-3 -10 -5 -4 -5 12
0 17 2 24 5 18 2 -7 2 -21 0 -30z m-360 -15 c-3 -8 -6 -5 -6 6 -1 11 2 17 5
13 3 -3 4 -12 1 -19z m-610 -30 c-3 -8 -6 -5 -6 6 -1 11 2 17 5 13 3 -3 4 -12
1 -19z m631 -64 c-3 -14 -5 -12 -10 9 -3 19 -2 25 4 19 6 -6 8 -18 6 -28z
m-1781 4 c-3 -8 -6 -5 -6 6 -1 11 2 17 5 13 3 -3 4 -12 1 -19z m2032 -23 c0
-5 -4 -3 -9 5 -5 8 -9 22 -9 30 0 16 17 -16 18 -35z m-50 -17 c-1 -41 -1 -42
-11 -15 -5 15 -7 34 -4 42 10 27 16 16 15 -27z m-1927 7 c4 -16 1 -25 -8 -25
-14 0 -23 19 -16 38 7 20 19 14 24 -13z m48 -4 c0 -10 -6 -23 -13 -29 -10 -8
-13 -5 -15 15 -1 14 1 29 4 34 8 14 24 0 24 -20z m1779 -15 c-9 -8 -10 -7 -5
7 3 10 7 24 7 30 1 7 3 4 6 -7 3 -10 -1 -23 -8 -30z m241 34 c0 -5 -4 -10 -10
-10 -5 0 -10 5 -10 10 0 6 5 10 10 10 6 0 10 -4 10 -10z m-1203 -42 c-6 -42 4
-143 18 -203 4 -16 5 -27 1 -23 -24 21 -46 211 -30 252 11 30 17 16 11 -26z
m500 -31 c8 -16 12 -34 10 -40 -3 -7 -10 1 -16 18 -7 16 -24 46 -38 65 l-26
35 27 -25 c15 -14 34 -38 43 -53z m-1242 53 c3 -5 1 -10 -4 -10 -6 0 -11 5
-11 10 0 6 2 10 4 10 3 0 8 -4 11 -10z m1059 -220 l6 -85 -14 96 c-8 53 -19
114 -25 135 -6 22 -10 50 -10 64 2 49 38 -126 43 -210z m-497 198 c-3 -8 -6
-5 -6 6 -1 11 2 17 5 13 3 -3 4 -12 1 -19z m93 2 c0 -5 -5 -10 -11 -10 -5 0
-7 5 -4 10 3 6 8 10 11 10 2 0 4 -4 4 -10z m11 -97 c-8 -14 -10 -11 -16 20 -5
26 -3 42 6 54 12 14 14 12 17 -20 2 -20 -1 -44 -7 -54z m508 2 l-1 -30 -10 35
c-5 19 -14 39 -19 45 -5 5 -9 16 -9 25 0 9 8 3 20 -15 11 -16 19 -43 19 -60z
m352 -74 c-7 -19 -9 -1 -9 69 l1 95 8 -69 c6 -43 6 -80 0 -95z m-974 82 c-3
-10 -5 -2 -5 17 0 19 2 27 5 18 2 -10 2 -26 0 -35z m339 -36 c18 7 17 -5 -1
-37 -8 -14 -15 -38 -15 -55 -1 -27 -2 -28 -10 -9 -4 12 -5 59 -2 105 6 66 8
74 10 37 2 -36 6 -46 18 -41z m40 28 c-7 -27 -26 -35 -26 -10 0 16 22 46 29
39 2 -1 1 -15 -3 -29z m198 -40 c9 -32 16 -64 16 -69 0 -10 -15 1 -16 12 0 6
-6 28 -31 117 -4 14 -2 17 5 10 6 -5 18 -37 26 -70z m120 -55 c5 -52 5 -53 -5
-15 -8 35 -15 59 -35 134 -2 9 5 -2 15 -24 11 -22 22 -65 25 -95z m-747 68
c-3 -8 -6 -5 -6 6 -1 11 2 17 5 13 3 -3 4 -12 1 -19z m-177 -33 l-8 -40 -1 36
c0 20 2 39 6 42 11 11 11 4 3 -38z m229 3 c0 -31 -3 -37 -8 -24 -7 18 -3 66 5
66 2 0 4 -19 3 -42z m98 -55 c-2 -16 -4 -5 -4 22 0 28 2 40 4 28 2 -13 2 -35
0 -50z m340 -50 c-2 -16 -4 -5 -4 22 0 28 2 40 4 28 2 -13 2 -35 0 -50z m172
-53 c-1 -51 -3 -58 -9 -35 -12 46 -12 133 0 115 5 -8 9 -44 9 -80z m-839 20
c0 -13 -1 -13 -10 0 -5 8 -10 22 -10 30 0 13 1 13 10 0 5 -8 10 -22 10 -30z
m464 5 c5 -22 4 -26 -4 -15 -5 8 -10 24 -10 34 0 26 6 18 14 -19z m-384 -105
c0 -5 -2 -10 -4 -10 -3 0 -8 5 -11 10 -3 6 -1 10 4 10 6 0 11 -4 11 -10z m130
-1 c0 -7 8 -18 18 -25 14 -11 15 -13 2 -14 -9 0 -21 5 -28 12 -15 15 -16 38
-2 38 6 0 10 -5 10 -11z m290 -66 c0 -7 -4 -13 -8 -13 -10 0 -42 54 -42 72 1
16 50 -42 50 -59z m-384 30 c-7 -7 -26 7 -26 19 0 6 6 6 15 -2 9 -7 13 -15 11
-17z m274 -28 c0 -8 -4 -15 -10 -15 -5 0 -10 7 -10 15 0 8 5 15 10 15 6 0 10
-7 10 -15z"/>
<path d="M3334 3715 c0 -49 1 -71 3 -48 2 23 2 64 0 90 -2 26 -3 8 -3 -42z"/>
<path d="M3185 3693 c-46 -63 -107 -114 -172 -144 -35 -16 -63 -31 -63 -34 0
-5 60 20 104 42 40 21 134 111 152 145 20 39 11 35 -21 -9z"/>
<path d="M4850 3550 c-19 -11 -31 -19 -27 -20 11 0 67 29 67 35 0 7 -1 7 -40
-15z"/>
<path d="M1712 3508 c2 -13 8 -23 13 -23 6 0 11 10 13 23 2 15 -2 22 -13 22
-11 0 -15 -7 -13 -22z"/>
<path d="M5732 3508 c2 -13 8 -23 13 -23 6 0 11 10 13 23 2 15 -2 22 -13 22
-11 0 -15 -7 -13 -22z"/>
<path d="M2480 3466 c28 -17 50 -21 35 -7 -6 5 -21 12 -35 15 l-25 7 25 -15z"/>
<path d="M3449 3265 c-12 -22 6 -105 22 -105 6 0 7 5 4 11 -4 5 -10 31 -14 57
-3 26 -9 43 -12 37z"/>
<path d="M3520 3170 c0 -4 10 -10 23 -14 31 -8 39 -7 33 3 -7 11 -56 21 -56
11z"/>
<path d="M5637 3053 c-2 -5 -1 -19 4 -33 7 -23 7 -23 8 8 1 31 -3 40 -12 25z"/>
<path d="M4901 2873 c0 -25 1 -26 9 -8 12 27 12 35 0 35 -5 0 -10 -12 -9 -27z"/>
<path d="M5031 2874 c0 -11 3 -14 6 -6 3 7 2 16 -1 19 -3 4 -6 -2 -5 -13z"/>
<path d="M4944 2835 c10 -8 23 -12 28 -9 14 9 -2 24 -25 24 -21 -1 -21 -1 -3
-15z"/>
<path d="M5280 2255 c-10 -13 -9 -15 8 -15 15 0 20 5 16 15 -4 8 -7 15 -9 15
-1 0 -8 -7 -15 -15z"/>
<path d="M4675 1709 c-4 -6 -5 -12 -2 -15 2 -3 7 2 10 11 7 17 1 20 -8 4z"/>
<path d="M4580 1671 c0 -5 -3 -18 -6 -28 -4 -14 -4 -15 4 -4 5 7 14 11 20 7 6
-4 8 2 5 14 -5 20 -23 28 -23 11z"/>
<path d="M4557 1663 c-4 -3 -7 -16 -6 -27 0 -19 1 -19 10 3 10 24 8 36 -4 24z"/>
<path d="M2779 1491 c-35 -27 -125 -84 -199 -127 -273 -156 -419 -249 -452
-288 -127 -147 -223 -388 -243 -613 -3 -40 -15 -105 -26 -144 -34 -121 -69
-263 -69 -278 0 -23 1672 -9 2110 18 481 30 1357 28 1728 -3 45 -4 52 -2 52
14 0 10 -20 95 -45 188 -25 93 -45 192 -45 220 0 27 -13 103 -30 168 -47 188
-155 389 -247 462 -52 40 -219 143 -388 237 -77 43 -167 99 -200 125 -33 26
-70 52 -82 59 -22 11 -93 16 -93 5 0 -3 16 -20 35 -38 30 -29 35 -40 35 -80 0
-132 -242 -350 -477 -430 -119 -40 -204 -51 -413 -51 -200 1 -257 8 -380 47
-243 78 -490 298 -490 437 0 37 5 49 35 77 19 18 35 35 35 38 0 3 -20 6 -44 6
-36 0 -53 -8 -107 -49z"/>
<path d="M3170 1398 c0 -9 7 -19 16 -22 15 -6 15 -4 3 11 -7 10 -15 20 -16 22
-2 2 -3 -3 -3 -11z"/>
<path d="M4251 1364 c0 -11 3 -14 6 -6 3 7 2 16 -1 19 -3 4 -6 -2 -5 -13z"/>
</g>
</svg>
