<svg width="198" height="98" viewBox="0 0 198 98" xmlns="http://www.w3.org/2000/svg"><g id="Brand" stroke="none" stroke-width="1" fill="none" fill-rule="evenodd"><g id="Brand-Assets" transform="translate(-221 -471)"><g transform="translate(221 471)" id="brand/logo/sessionize-logo-vertical"><g id="symbol" transform="translate(75)"><path d="M4 0h20c13.255.0 24 10.745 24 24v20a4 4 0 01-4 4H4a4 4 0 01-4-4V4a4 4 0 014-4z" id="inner-background" fill="#fff"/><path d="M24 0c13.255.0 24 10.745 24 24v20a4 4 0 01-4 4H29l-.003-.338c-.097-5.789-2.694-9.804-7.417-11.92L48 24l-.639-.218C41.644 21.784 36.857 18.857 33 15s-6.784-8.644-8.782-14.361L24 0 8 36c0 1.333.333 2.333 1 3s1.667 1 3 1l.374.002C19.915 40.082 23 42.592 23 48H4a4 4 0 01-4-4V4a4 4 0 014-4h20zm14.414 9.586c-1.562-1.562-3.461-2.195-4.242-1.414-.781.78-.148 2.68 1.414 4.242 1.562 1.562 3.461 2.195 4.242 1.414.781-.78.148-2.68-1.414-4.242z" fill="#1ab394"/></g><path d="M3.56 96.6C1.833 95.669.646 94.317.0 92.544l1.895-1.259c.463 1.555 1.403 2.72 2.82 3.498 1.418.777 3.159 1.166 5.224 1.166 2.096.0 3.737-.404 4.923-1.213 1.187-.808 1.78-1.88 1.78-3.218.0-1.15-.509-2.068-1.526-2.752s-2.804-1.259-5.362-1.725c-3.236-.591-5.516-1.384-6.842-2.379-1.325-.995-1.987-2.41-1.987-4.244.0-1.213.37-2.332 1.109-3.358.74-1.026 1.787-1.834 3.143-2.425s2.897-.886 4.623-.886c2.435.0 4.384.466 5.848 1.399s2.473 2.363 3.028 4.29l-1.988 1.167C15.825 77.4 13.529 75.8 9.8 75.8c-1.233.0-2.35.202-3.351.606-1.002.404-1.788.94-2.358 1.61-.57.668-.855 1.39-.855 2.168.0 1.275.524 2.27 1.572 2.985 1.047.715 2.897 1.306 5.547 1.772 3.143.529 5.362 1.29 6.657 2.285 1.294.995 1.941 2.394 1.941 4.198.0 1.99-.84 3.583-2.52 4.78C14.755 97.401 12.498 98 9.662 98c-2.342.0-4.376-.466-6.102-1.4zm37.799-9.747H23.007c.154 2.86.994 5.092 2.52 6.693 1.525 1.601 3.566 2.402 6.124 2.402 1.819.0 3.383-.373 4.692-1.12 1.31-.746 2.258-1.803 2.843-3.17l1.942 1.025c-.863 1.71-2.096 3.024-3.698 3.941C35.827 97.541 33.9 98 31.65 98c-3.42.0-6.094-1.073-8.02-3.218-1.926-2.146-2.89-5.115-2.89-8.908.0-3.794.933-6.763 2.797-8.908 1.865-2.146 4.477-3.218 7.836-3.218 3.143.0 5.609 1.057 7.396 3.171 1.788 2.114 2.681 4.913 2.681 8.395.0.529-.03 1.042-.092 1.54zm-15.902-8.698c-1.449 1.57-2.265 3.77-2.45 6.6h16.272c-.154-2.799-.917-4.99-2.289-6.577-1.37-1.585-3.243-2.378-5.616-2.378-2.496.0-4.469.785-5.917 2.355zm21.389 18.516c-1.788-.886-3.098-2.2-3.93-3.941l3.005-2.099c.524 1.368 1.433 2.394 2.727 3.078 1.295.684 2.82 1.026 4.577 1.026 1.818.0 3.205-.326 4.16-.98.956-.652 1.433-1.476 1.433-2.471.0-.902-.446-1.625-1.34-2.169-.894-.544-2.466-1.018-4.715-1.422-2.22-.404-3.976-.894-5.27-1.47-1.295-.575-2.235-1.305-2.82-2.191-.586-.887-.878-1.983-.878-3.289.0-1.274.37-2.44 1.109-3.497.74-1.058 1.803-1.905 3.19-2.542 1.387-.638 2.989-.956 4.807-.956 2.466.0 4.446.458 5.94 1.375 1.495.918 2.566 2.325 3.213 4.221l-3.143 1.866c-.493-1.493-1.24-2.565-2.242-3.218s-2.258-.98-3.768-.98-2.789.342-3.837 1.026c-1.047.684-1.571 1.477-1.571 2.379.0 1.026.454 1.819 1.363 2.379.91.56 2.535 1.041 4.877 1.445 3.206.529 5.47 1.322 6.796 2.379 1.325 1.057 1.988 2.55 1.988 4.477.0 1.337-.393 2.527-1.18 3.568-.785 1.042-1.91 1.858-3.374 2.449-1.464.59-3.166.886-5.108.886-2.219.0-4.222-.443-6.01-1.33zm21.111.0c-1.788-.886-3.097-2.2-3.93-3.941l3.005-2.099c.524 1.368 1.433 2.394 2.728 3.078 1.294.684 2.82 1.026 4.576 1.026 1.819.0 3.205-.326 4.16-.98.956-.652 1.434-1.476 1.434-2.471.0-.902-.447-1.625-1.34-2.169-.895-.544-2.466-1.018-4.716-1.422-2.219-.404-3.975-.894-5.27-1.47-1.294-.575-2.234-1.305-2.82-2.191-.585-.887-.878-1.983-.878-3.289.0-1.274.37-2.44 1.11-3.497.739-1.058 1.802-1.905 3.19-2.542 1.386-.638 2.988-.956 4.807-.956 2.465.0 4.445.458 5.94 1.375 1.495.918 2.566 2.325 3.213 4.221l-3.144 1.866c-.493-1.493-1.24-2.565-2.242-3.218-1.001-.653-2.257-.98-3.767-.98-1.51.0-2.79.342-3.837 1.026-1.048.684-1.572 1.477-1.572 2.379.0 1.026.455 1.819 1.364 2.379s2.535 1.041 4.877 1.445c3.205.529 5.47 1.322 6.795 2.379s1.988 2.55 1.988 4.477c0 1.337-.393 2.527-1.179 3.568-.786 1.042-1.91 1.858-3.374 2.449-1.464.59-3.167.886-5.109.886-2.218.0-4.222-.443-6.009-1.33zm18.846-27.19c-.585-.545-.878-1.315-.878-2.31s.293-1.756.878-2.285c.586-.528 1.402-.793 2.45-.793s1.857.265 2.427.793c.57.529.855 1.29.855 2.285.0.995-.285 1.765-.855 2.31-.57.543-1.379.815-2.427.815s-1.864-.272-2.45-.816zm4.9 28.053h-4.946v-23.32h4.946v23.32zm23.1-20.568c2.034 2.145 3.05 5.114 3.05 8.908.0 3.793-1.016 6.762-3.05 8.908-2.035 2.145-4.854 3.218-8.46 3.218-3.606.0-6.426-1.073-8.46-3.218-2.034-2.146-3.05-5.115-3.05-8.908.0-3.794 1.016-6.763 3.05-8.908 2.034-2.146 4.854-3.218 8.46-3.218 3.606.0 6.425 1.072 8.46 3.218zm-13.29 2.821c-1.126 1.415-1.688 3.444-1.688 6.087s.562 4.671 1.687 6.086 2.735 2.122 4.83 2.122c2.097.0 3.714-.715 4.855-2.145 1.14-1.43 1.71-3.451 1.71-6.063.0-2.612-.57-4.633-1.71-6.063s-2.758-2.146-4.854-2.146-3.706.708-4.83 2.122zm38.723-3.847c1.526 1.461 2.288 3.56 2.288 6.296v15.298h-6.333V84.102c0-3.545-1.371-5.317-4.114-5.317-1.48.0-2.735.528-3.767 1.585-1.033 1.058-1.55 2.674-1.55 4.85v12.314h-6.332v-23.32h5.686l.185 4.15c.77-1.523 1.833-2.673 3.19-3.45 1.355-.778 2.927-1.166 4.714-1.166 2.497.0 4.508.73 6.033 2.192zm4.816-8.489c0-2.3 1.31-3.451 3.93-3.451s3.93 1.15 3.93 3.451c0 2.27-1.31 3.405-3.93 3.405s-3.93-1.135-3.93-3.405zm7.073 30.083h-6.333v-23.32h6.333v23.32zm1.789-4.85 9.153-10.541 2.496-2.472-3.698.093h-7.905v-5.55h20.294v4.85l-9.107 10.448-2.496 2.565 4.068-.093h7.95v5.55h-20.755v-4.85zm43.855-4.525h-15.764c.247 1.461.779 2.534 1.595 3.218.817.684 1.903 1.026 3.26 1.026 1.14.0 2.072-.217 2.796-.653.724-.435 1.21-1.072 1.456-1.912l6.38 2.052c-.648 1.99-1.904 3.506-3.768 4.548-1.865 1.041-4.153 1.562-6.865 1.562-4.037.0-7.126-1.057-9.268-3.171-2.142-2.115-3.213-5.1-3.213-8.955.0-3.856 1.048-6.84 3.143-8.955 2.096-2.114 5.07-3.171 8.922-3.171 3.73.0 6.588 1.033 8.575 3.101 1.988 2.068 2.982 4.967 2.982 8.698.0 1.057-.077 1.928-.231 2.612zm-15.81-4.29h8.69c-.369-3.048-1.787-4.571-4.252-4.571-2.496.0-3.976 1.523-4.438 4.57z" id="sessionize" fill="#1ab394"/></g></g></g></svg>